<svg width="32" height="32" viewBox="0 0 32 32" fill="none" xmlns="http://www.w3.org/2000/svg">
<path d="M4.98633 28.1357C4.66411 28.1357 4.39656 28.0278 4.18367 27.812C3.97078 27.5964 3.86433 27.329 3.86433 27.0097V25.411C3.86433 25.0963 3.97278 24.8298 4.18967 24.6113C4.40633 24.3927 4.67445 24.2833 4.994 24.2833C5.31356 24.2833 5.57967 24.3924 5.79233 24.6107C6.00522 24.8289 6.11167 25.0967 6.11167 25.414V27.0127C6.11167 27.33 6.00311 27.5964 5.786 27.812C5.56889 28.0278 5.30233 28.1357 4.98633 28.1357ZM10.4863 28.1357C10.167 28.1357 9.90156 28.0277 9.69 27.8117C9.47822 27.5957 9.37233 27.3278 9.37233 27.008V20.3087C9.37233 19.9911 9.48044 19.7251 9.69667 19.5107C9.91267 19.2962 10.1808 19.189 10.501 19.189C10.821 19.189 11.0874 19.2962 11.3003 19.5107C11.5132 19.7251 11.6197 19.9911 11.6197 20.3087V27.008C11.6197 27.3278 11.5111 27.5957 11.294 27.8117C11.0769 28.0277 10.8077 28.1357 10.4863 28.1357ZM16.0013 28.1357C15.6849 28.1357 15.419 28.0278 15.2037 27.812C14.9881 27.5964 14.8803 27.3284 14.8803 27.008V22.3087C14.8803 21.9942 14.9903 21.7277 15.2103 21.509C15.4301 21.2903 15.6982 21.181 16.0147 21.181C16.3309 21.181 16.5954 21.2903 16.8083 21.509C17.0212 21.7277 17.1277 21.9942 17.1277 22.3087V27.016C17.1277 27.3304 17.019 27.5957 16.8017 27.8117C16.5846 28.0277 16.3178 28.1357 16.0013 28.1357ZM21.51 28.1357C21.1878 28.1357 20.9203 28.0278 20.7077 27.812C20.4948 27.5964 20.3883 27.3284 20.3883 27.008V18.832C20.3883 18.5167 20.4967 18.2512 20.7133 18.0357C20.9302 17.8201 21.1983 17.7123 21.5177 17.7123C21.8372 17.7123 22.1034 17.8201 22.3163 18.0357C22.5292 18.2512 22.6357 18.5167 22.6357 18.832V27.016C22.6357 27.3304 22.5271 27.5957 22.31 27.8117C22.0929 28.0277 21.8262 28.1357 21.51 28.1357ZM27.0093 28.1357C26.6929 28.1357 26.4283 28.0278 26.2157 27.812C26.0028 27.5964 25.8963 27.3284 25.8963 27.008V14.832C25.8963 14.5167 26.0047 14.2512 26.2213 14.0357C26.438 13.8201 26.7046 13.7123 27.021 13.7123C27.3374 13.7123 27.6023 13.8201 27.8157 14.0357C28.029 14.2512 28.1357 14.5167 28.1357 14.832V27.016C28.1357 27.3304 28.027 27.5957 27.8097 27.8117C27.5926 28.0277 27.3258 28.1357 27.0093 28.1357ZM18.654 15.4067C18.364 15.4067 18.0802 15.3479 17.8027 15.2303C17.5251 15.113 17.2716 14.9451 17.042 14.7267L13.3333 11.018L5.837 18.481C5.609 18.7077 5.33611 18.8157 5.01833 18.805C4.70078 18.7943 4.432 18.6754 4.212 18.4483C4.00245 18.2214 3.89211 17.9561 3.881 17.6523C3.86989 17.3483 3.97767 17.0831 4.20433 16.8567L11.742 9.38566C11.97 9.15966 12.2218 8.9941 12.4973 8.88899C12.7731 8.78366 13.0518 8.73099 13.3333 8.73099C13.6149 8.73099 13.8976 8.78366 14.1813 8.88899C14.4649 8.9941 14.7127 9.15966 14.9247 9.38566L18.6667 13.1277L26.1963 5.59766C26.423 5.37122 26.6899 5.25777 26.997 5.25733C27.3043 5.25688 27.568 5.37021 27.788 5.59733C27.9976 5.82421 28.1079 6.08955 28.119 6.39333C28.1301 6.69733 28.0223 6.96255 27.7957 7.18899L20.258 14.7267C20.0529 14.9538 19.8068 15.1239 19.5197 15.237C19.2326 15.3501 18.944 15.4067 18.654 15.4067Z" fill="#FF00E6"/>
</svg>
