<svg width="32" height="32" viewBox="0 0 32 32" fill="none" xmlns="http://www.w3.org/2000/svg">
<path d="M16 27.203C18.3289 26.4039 20.2604 24.9775 21.7944 22.9237C23.3281 20.8697 24.2284 18.5618 24.495 16H16V4.91305L7.40503 8.12238V14.6C7.40503 14.8614 7.41059 15.0892 7.4217 15.2834C7.43281 15.4776 7.46059 15.7165 7.50503 16H16V27.203ZM16 29.3914C15.8729 29.3914 15.7515 29.3789 15.6357 29.354C15.5197 29.3292 15.4008 29.2918 15.279 29.2421C12.1635 28.1976 9.69381 26.3015 7.87003 23.5537C6.04603 20.8059 5.13403 17.8103 5.13403 14.5667V8.08905C5.13403 7.60838 5.27092 7.17061 5.5447 6.77572C5.81826 6.38083 6.17314 6.09761 6.60937 5.92605L15.2044 2.71672C15.4755 2.61716 15.7407 2.56738 16 2.56738C16.2594 2.56738 16.5246 2.61716 16.7957 2.71672L25.3907 5.92605C25.8269 6.09761 26.1831 6.38083 26.4594 6.77572C26.7358 7.17061 26.874 7.60838 26.874 8.08905V14.5667C26.874 17.8103 25.9607 20.8059 24.134 23.5537C22.3076 26.3015 19.8366 28.1976 16.721 29.2421C16.5993 29.2918 16.4804 29.3292 16.3644 29.354C16.2486 29.3789 16.1271 29.3914 16 29.3914Z" fill="#02A615"/>
</svg>
