<svg width="32" height="32" viewBox="0 0 32 32" fill="none" xmlns="http://www.w3.org/2000/svg">
<path d="M4.73835 26.866C4.10835 26.866 3.57235 26.645 3.13035 26.203C2.68835 25.761 2.46735 25.225 2.46735 24.595V20.1586C2.46735 19.9353 2.52768 19.7416 2.64835 19.5776C2.76924 19.4139 2.92846 19.2986 3.12601 19.232C3.80957 18.9966 4.34846 18.5716 4.74268 17.957C5.1369 17.3421 5.33401 16.694 5.33401 16.0126C5.33401 15.3313 5.1369 14.6776 4.74268 14.0516C4.34846 13.4259 3.80957 12.9982 3.12601 12.7686C2.92846 12.702 2.76924 12.5865 2.64835 12.4223C2.52768 12.2579 2.46735 12.0628 2.46735 11.837V7.40498C2.46735 6.77275 2.68835 6.23486 3.13035 5.79131C3.57235 5.34775 4.10835 5.12598 4.73835 5.12598H27.2617C27.8939 5.12598 28.4318 5.34775 28.8753 5.79131C29.3189 6.23486 29.5407 6.77275 29.5407 7.40498V11.845C29.5407 12.0659 29.4796 12.2586 29.3573 12.4233C29.2351 12.588 29.074 12.7036 28.874 12.7703C28.1905 12.9988 27.6529 13.4259 27.2613 14.0516C26.8698 14.6776 26.674 15.3313 26.674 16.0126C26.674 16.694 26.8698 17.3421 27.2613 17.957C27.6529 18.5716 28.1905 18.9959 28.874 19.2296C29.0716 19.2952 29.232 19.4105 29.3553 19.5756C29.4789 19.741 29.5407 19.9341 29.5407 20.155V24.595C29.5407 25.225 29.3189 25.761 28.8753 26.203C28.4318 26.645 27.8939 26.866 27.2617 26.866H4.73835ZM4.73835 24.595H27.2617V21.0653C26.4172 20.4822 25.7283 19.7536 25.195 18.8796C24.6617 18.0056 24.395 17.0448 24.395 15.997C24.395 14.9492 24.6617 13.988 25.195 13.1133C25.7283 12.2386 26.4172 11.5124 27.2617 10.9346V7.40498H4.73835V10.9346C5.61035 11.5124 6.30612 12.2391 6.82568 13.1146C7.34523 13.99 7.60501 14.9509 7.60501 15.9973C7.60501 17.0435 7.34523 18.004 6.82568 18.8786C6.30612 19.7533 5.61035 20.4822 4.73835 21.0653V24.595ZM12.6667 22.595H19.4C19.5778 22.595 19.7222 22.5394 19.8333 22.4283C19.9445 22.3172 20 22.1728 20 21.995V21.6283C20 21.5172 19.9722 21.4116 19.9167 21.3116C19.8611 21.2116 19.7778 21.1394 19.6667 21.095L18.6667 20.595C19.4 20.595 20.0278 20.3339 20.55 19.8116C21.0722 19.2894 21.3333 18.6616 21.3333 17.9283V12.0716C21.3333 11.1161 20.9222 10.4328 20.1 10.0216C19.2778 9.61053 17.9111 9.40498 16 9.40498C14.1556 9.40498 12.8056 9.61609 11.95 10.0383C11.0945 10.4605 10.6667 11.1383 10.6667 12.0716V17.9283C10.6667 18.6616 10.9278 19.2894 11.45 19.8116C11.9722 20.3339 12.6 20.595 13.3333 20.595L12.3667 21.0616C12.2556 21.1061 12.1667 21.1839 12.1 21.295C12.0333 21.4061 12 21.5283 12 21.6616V21.9283C12 22.1061 12.0667 22.2616 12.2 22.395C12.3333 22.5283 12.4889 22.595 12.6667 22.595ZM13.7263 19.1976C13.4401 19.1976 13.2026 19.1032 13.0137 18.9143C12.8248 18.7254 12.7303 18.4865 12.7303 18.1976C12.7303 17.9141 12.8248 17.6765 13.0137 17.485C13.2026 17.2934 13.4415 17.1976 13.7303 17.1976C14.0139 17.1976 14.2515 17.2934 14.443 17.485C14.6346 17.6765 14.7303 17.9154 14.7303 18.2016C14.7303 18.4879 14.6346 18.7254 14.443 18.9143C14.2515 19.1032 14.0126 19.1976 13.7263 19.1976ZM18.2737 19.1976C17.9875 19.1976 17.7499 19.1032 17.561 18.9143C17.3721 18.7254 17.2777 18.4865 17.2777 18.1976C17.2777 17.9141 17.3721 17.6765 17.561 17.485C17.7499 17.2934 17.9888 17.1976 18.2777 17.1976C18.5612 17.1976 18.7988 17.2934 18.9903 17.485C19.1819 17.6765 19.2777 17.9154 19.2777 18.2016C19.2777 18.4879 19.1819 18.7254 18.9903 18.9143C18.7988 19.1032 18.5599 19.1976 18.2737 19.1976ZM12.7863 15.8643V12.1276H19.2137V15.8643H12.7863Z" fill="#FF0000"/>
</svg>
