<svg width="32" height="32" viewBox="0 0 32 32" fill="none" xmlns="http://www.w3.org/2000/svg">
<path d="M3.29635 23.7277C3.0699 23.501 2.95535 23.2303 2.95268 22.9154C2.95002 22.6003 3.06457 22.3268 3.29635 22.095L10.8407 14.6C11.27 14.1638 11.7987 13.9457 12.4267 13.9457C13.0549 13.9457 13.5871 14.1638 14.0233 14.6L17.9987 18.5674L25.729 10.821H22.703C22.3824 10.821 22.1129 10.7114 21.8947 10.492C21.6765 10.2727 21.5674 10.0019 21.5674 9.67972C21.5674 9.35749 21.6765 9.08872 21.8947 8.87338C22.1129 8.65783 22.3824 8.55005 22.703 8.55005H28.397C28.7177 8.55005 28.9885 8.65916 29.2094 8.87738C29.4302 9.0956 29.5407 9.36505 29.5407 9.68572V15.3797C29.5407 15.6837 29.4355 15.9489 29.225 16.1754C29.0146 16.402 28.7522 16.5154 28.438 16.5154C28.1291 16.5154 27.8614 16.402 27.6347 16.1754C27.4082 15.9489 27.295 15.6837 27.295 15.3797V12.479L19.5567 20.184C19.1218 20.6203 18.5903 20.8384 17.9623 20.8384C17.3343 20.8384 16.8049 20.6203 16.374 20.184L12.3987 16.25L4.92102 23.7277C4.69435 23.9542 4.42357 24.0674 4.10868 24.0674C3.79379 24.0674 3.52302 23.9542 3.29635 23.7277Z" fill="#0178FF"/>
</svg>
