<svg width="32" height="32" viewBox="0 0 32 32" fill="none" xmlns="http://www.w3.org/2000/svg">
<path d="M16.002 29.5167C15.2682 29.5167 14.6699 29.2843 14.207 28.8194C13.7439 28.3547 13.5123 27.7552 13.5123 27.0207C13.5123 26.5267 13.6332 26.0771 13.875 25.6717C14.1168 25.2664 14.4626 24.9362 14.9123 24.6811V21.1167H10.0667C9.48178 21.1167 8.97167 20.8991 8.53634 20.4637C8.101 20.0284 7.88334 19.5183 7.88334 18.9334V15.3557C7.43356 15.1399 7.08778 14.8318 6.846 14.4314C6.60423 14.0312 6.48334 13.5794 6.48334 13.0761C6.48334 12.3303 6.71556 11.7277 7.18 11.2684C7.64423 10.8088 8.24323 10.5791 8.977 10.5791C9.71612 10.5791 10.3158 10.8092 10.776 11.2694C11.2364 11.7296 11.4667 12.3346 11.4667 13.0844C11.4667 13.5917 11.3444 14.0432 11.1 14.4387C10.8556 14.8343 10.5111 15.1379 10.0667 15.3497V18.9334H14.9123V7.60006H13.2857C13.0621 7.60006 12.8984 7.49917 12.7947 7.29739C12.6909 7.09583 12.7026 6.89284 12.8297 6.68839L15.5443 2.99939C15.673 2.85006 15.8253 2.77539 16.0013 2.77539C16.1773 2.77539 16.3288 2.85006 16.4557 2.99939L19.1703 6.68839C19.2974 6.89284 19.3091 7.09583 19.2053 7.29739C19.1016 7.49917 18.9379 7.60006 18.7143 7.60006H17.0877V18.9334H21.9333V15.5544H21.097C20.9479 15.5544 20.8167 15.4975 20.7033 15.3837C20.59 15.2699 20.5333 15.1363 20.5333 14.9827V11.1427C20.5333 10.9936 20.5913 10.8624 20.7073 10.7491C20.8231 10.6357 20.9557 10.5791 21.105 10.5791H24.953C25.1021 10.5791 25.2333 10.6359 25.3467 10.7497C25.46 10.8635 25.5167 10.9972 25.5167 11.1507V14.9907C25.5167 15.1398 25.46 15.2711 25.3467 15.3844C25.2333 15.4977 25.1021 15.5544 24.953 15.5544H24.1167V18.9334C24.1167 19.5183 23.899 20.0284 23.4637 20.4637C23.0283 20.8991 22.5182 21.1167 21.9333 21.1167H17.0877V24.6654C17.5363 24.9181 17.8819 25.2618 18.1243 25.6967C18.3666 26.1318 18.4877 26.5733 18.4877 27.0211C18.4877 27.7553 18.2568 28.3548 17.795 28.8197C17.3334 29.2844 16.7358 29.5167 16.002 29.5167Z" fill="#FF00E6"/>
</svg>
