<svg width="32" height="32" viewBox="0 0 32 32" fill="none" xmlns="http://www.w3.org/2000/svg">
<path d="M13.279 18.7543C12.9532 18.7543 12.6812 18.6452 12.463 18.4269C12.2448 18.2087 12.1357 17.9394 12.1357 17.6189V11.5166C12.1357 10.8922 12.3575 10.3576 12.801 9.91294C13.2446 9.46805 13.7825 9.24561 14.4147 9.24561H24.3144C25.7624 9.24561 26.9938 9.75172 28.0087 10.7639C29.0236 11.7764 29.531 13.0065 29.531 14.4543V17.6189C29.531 17.9394 29.4205 18.2087 29.1994 18.4269C28.978 18.6452 28.7075 18.7543 28.3877 18.7543H13.279ZM28.421 23.0333H3.57903C3.25858 23.0333 2.98914 22.9236 2.77069 22.7043C2.55247 22.4849 2.44336 22.2128 2.44336 21.8879C2.44336 21.5631 2.55247 21.2929 2.77069 21.0776C2.98914 20.8621 3.25858 20.7543 3.57903 20.7543H28.421C28.7408 20.7543 29.0114 20.8639 29.2327 21.0833C29.4538 21.3026 29.5644 21.5747 29.5644 21.8996C29.5644 22.2245 29.4538 22.4946 29.2327 22.7099C29.0114 22.9255 28.7408 23.0333 28.421 23.0333ZM6.61636 18.7543C5.45369 18.7543 4.46758 18.3482 3.65803 17.5359C2.84825 16.7237 2.44336 15.7374 2.44336 14.5769C2.44336 13.4145 2.84958 12.4256 3.66203 11.6103C4.47425 10.7952 5.46047 10.3876 6.62069 10.3876C7.78336 10.3876 8.77092 10.795 9.58336 11.6099C10.396 12.425 10.8024 13.4147 10.8024 14.5789C10.8024 15.7432 10.3954 16.7302 9.58136 17.5399C8.76758 18.3495 7.77925 18.7543 6.61636 18.7543ZM6.61903 16.5789C7.18569 16.5789 7.66069 16.3873 8.04403 16.0039C8.42736 15.6206 8.61903 15.1456 8.61903 14.5789C8.61903 14.0123 8.42736 13.5373 8.04403 13.1539C7.66069 12.7706 7.18569 12.5789 6.61903 12.5789C6.05236 12.5789 5.57736 12.7706 5.19403 13.1539C4.81069 13.5373 4.61903 14.0123 4.61903 14.5789C4.61903 15.1456 4.81069 15.6206 5.19403 16.0039C5.57736 16.3873 6.05236 16.5789 6.61903 16.5789ZM14.3267 16.5789H27.3477V14.4543C27.3477 13.6254 27.0507 12.9126 26.4567 12.3159C25.8627 11.7193 25.1486 11.4209 24.3144 11.4209H14.3267V16.5789Z" fill="#0178FF"/>
</svg>
