<svg width="32" height="32" viewBox="0 0 32 32" fill="none" xmlns="http://www.w3.org/2000/svg">
<path d="M16.0067 29.5328C14.1356 29.5328 12.3772 29.1775 10.7317 28.4668C9.08589 27.7561 7.65222 26.7909 6.43066 25.5711C5.20911 24.3516 4.24322 22.9191 3.533 21.2738C2.82255 19.6285 2.46733 17.8705 2.46733 15.9998C2.46733 14.1289 2.82255 12.371 3.533 10.7261C4.24322 9.08125 5.20911 7.64892 6.43066 6.42914C7.65222 5.20936 9.086 4.24281 10.732 3.52947C12.378 2.81614 14.1367 2.45947 16.008 2.45947C19.3489 2.45947 22.258 3.5188 24.7353 5.63747C27.2127 7.75614 28.7398 10.3954 29.3167 13.5551C29.3718 13.8576 29.3063 14.1371 29.1203 14.3938C28.9343 14.6507 28.6901 14.8047 28.3877 14.8558C28.0839 14.9109 27.8049 14.8527 27.5507 14.6811C27.2967 14.5098 27.1421 14.2721 27.087 13.9681C26.7519 12.0572 25.979 10.3441 24.7683 8.8288C23.5577 7.31347 22.0407 6.18069 20.2173 5.43047V6.02247C20.2173 6.7938 19.9503 7.46603 19.4163 8.03914C18.8821 8.61225 18.2294 8.89881 17.4583 8.89881H14.5827V11.7805C14.5827 12.1598 14.4327 12.4704 14.1327 12.7121C13.8327 12.9539 13.493 13.0748 13.1137 13.0748H10.3733V15.9841H18.9253C19.3751 15.9841 19.7111 16.1726 19.9333 16.5495C20.1556 16.9261 20.1751 17.3167 19.992 17.7211C19.7531 18.1694 19.5837 18.6417 19.4837 19.1381C19.3834 19.6346 19.3333 20.1366 19.3333 20.6441C19.3333 21.8235 19.6362 22.9269 20.242 23.9545C20.8478 24.982 21.4729 25.9625 22.1173 26.8958C22.2889 27.1225 22.3416 27.3684 22.2753 27.6335C22.2091 27.8986 22.0517 28.0894 21.803 28.2058C20.9194 28.6345 19.9934 28.9628 19.025 29.1908C18.0568 29.4188 17.0507 29.5328 16.0067 29.5328ZM14.5827 27.2285V24.5031C13.8049 24.5031 13.1519 24.2158 12.6237 23.6411C12.0957 23.0665 11.8317 22.3925 11.8317 21.6191V20.1601L5.04633 13.3748C4.93522 13.8193 4.85744 14.2555 4.813 14.6835C4.76855 15.1115 4.74633 15.5463 4.74633 15.9878C4.74633 18.8567 5.67855 21.3654 7.543 23.5138C9.40766 25.6623 11.7542 26.9005 14.5827 27.2285ZM26.1217 29.5328C26.0101 29.5328 25.9148 29.5039 25.8357 29.4461C25.7568 29.3884 25.7031 29.3129 25.6747 29.2198C25.3858 28.3807 25.0051 27.6027 24.5327 26.8858C24.0602 26.1687 23.5489 25.4684 22.9987 24.7848C22.52 24.1984 22.1228 23.5544 21.807 22.8528C21.4912 22.1515 21.3333 21.4174 21.3333 20.6505C21.3333 19.3256 21.8004 18.196 22.7347 17.2618C23.6689 16.3274 24.7968 15.8601 26.1183 15.8601C27.4399 15.8601 28.5682 16.3274 29.5033 17.2618C30.4382 18.1965 30.9057 19.3247 30.9057 20.6465C30.9057 21.418 30.7488 22.1536 30.435 22.8531C30.1212 23.5527 29.7258 24.1966 29.2487 24.7848C28.7207 25.4737 28.2132 26.1751 27.7263 26.8891C27.2394 27.6029 26.8521 28.3798 26.5643 29.2198C26.5361 29.3129 26.4831 29.3884 26.4053 29.4461C26.3276 29.5039 26.233 29.5328 26.1217 29.5328ZM26.1197 26.6465C26.4308 26.1798 26.7474 25.7243 27.0697 25.2798C27.3919 24.8354 27.7308 24.3909 28.0863 23.9465C28.4641 23.4629 28.7863 22.948 29.053 22.4018C29.3197 21.8558 29.453 21.2707 29.453 20.6465C29.453 19.7185 29.1308 18.9309 28.4863 18.2838C27.8419 17.6367 27.053 17.3131 26.1197 17.3131C25.1863 17.3131 24.3974 17.6367 23.753 18.2838C23.1086 18.9309 22.7863 19.7196 22.7863 20.6498C22.7863 21.2698 22.9197 21.8534 23.1863 22.4005C23.453 22.9476 23.7752 23.4629 24.153 23.9465C24.5086 24.3909 24.8474 24.8354 25.1697 25.2798C25.4919 25.7243 25.8086 26.1798 26.1197 26.6465ZM26.1197 22.3131C25.653 22.3131 25.2586 22.1534 24.9363 21.8338C24.6141 21.5143 24.453 21.1185 24.453 20.6465C24.453 20.1798 24.6141 19.7854 24.9363 19.4631C25.2586 19.1409 25.653 18.9798 26.1197 18.9798C26.5863 18.9798 26.9808 19.1409 27.303 19.4631C27.6252 19.7854 27.7863 20.1798 27.7863 20.6465C27.7863 21.1185 27.6252 21.5143 27.303 21.8338C26.9808 22.1534 26.5863 22.3131 26.1197 22.3131Z" fill="#009D0A"/>
</svg>
