<svg width="32" height="32" viewBox="0 0 32 32" fill="none" xmlns="http://www.w3.org/2000/svg">
<path d="M16.0007 29.469C13.2731 29.469 11.0276 29.1218 9.26402 28.4274C7.50069 27.7329 6.61902 26.5308 6.61902 24.821C6.61902 23.1161 7.50057 21.9166 9.26368 21.2224C11.0268 20.5281 13.2722 20.181 16 20.181C18.7278 20.181 20.9732 20.5281 22.7364 21.2224C24.4995 21.9166 25.381 23.1175 25.381 24.825C25.381 26.5326 24.4996 27.7335 22.7367 28.4277C20.9736 29.1219 18.7282 29.469 16.0007 29.469ZM16.004 26.6024C13.3327 26.6024 11.3801 26.3769 10.1464 25.926C8.91257 25.4754 8.18557 24.6967 7.96535 23.59C7.85957 23.7571 7.79135 23.966 7.76069 24.2167C7.7298 24.4674 7.71435 24.6848 7.71435 24.869C7.74102 26.0086 8.45968 26.8788 9.87035 27.4797C11.2812 28.0806 13.3238 28.381 15.998 28.381C18.6722 28.381 20.7155 28.0806 22.1277 27.4797C23.5397 26.8788 24.2564 26.0086 24.2777 24.869C24.2777 24.6848 24.2637 24.4674 24.2357 24.2167C24.2075 23.966 24.1405 23.7571 24.0347 23.59C23.7869 24.6967 23.0504 25.4754 21.825 25.926C20.5997 26.3769 18.6594 26.6024 16.004 26.6024ZM16.0007 25.5144C18.3451 25.5144 20.0787 25.3348 21.2014 24.9757C22.3242 24.6166 22.8857 24.076 22.8857 23.354C22.8857 22.6369 22.324 22.1101 21.2007 21.7737C20.0776 21.4372 18.3438 21.269 15.9994 21.269C13.6549 21.269 11.9158 21.4378 10.782 21.7754C9.64802 22.1131 9.08102 22.6408 9.08102 23.3584C9.08102 24.0781 9.64824 24.6175 10.7827 24.9764C11.9169 25.335 13.6562 25.5144 16.0007 25.5144ZM14.7347 11.6457H13.0734C12.8658 11.6457 12.7006 11.5572 12.5777 11.3804C12.4548 11.2037 12.4542 11.0158 12.576 10.8167L16.7347 3.29936C16.812 3.17225 16.9198 3.12291 17.058 3.15136C17.1962 3.1798 17.2654 3.2678 17.2654 3.41536V9.03102H18.9347C19.1396 9.03102 19.3028 9.11947 19.4243 9.29636C19.5459 9.47325 19.5458 9.66113 19.424 9.86002L15.2654 17.3777C15.188 17.5046 15.0802 17.5538 14.942 17.5254C14.8038 17.4971 14.7347 17.4092 14.7347 17.2617V11.6457Z" fill="#FF0000"/>
</svg>
