<svg width="32" height="32" viewBox="0 0 32 32" fill="none" xmlns="http://www.w3.org/2000/svg">
<path d="M5.40295 14.6667L8.59629 11.4654C8.80162 11.2547 8.90562 11.0121 8.90829 10.7374C8.91095 10.4627 8.80695 10.2187 8.59629 10.0054C8.38562 9.79228 8.1404 9.68572 7.86062 9.68572C7.58062 9.68572 7.33529 9.79094 7.12462 10.0014L3.26295 13.8711C3.03117 14.0995 2.91529 14.3665 2.91529 14.6721C2.91529 14.9776 3.03117 15.2437 3.26295 15.4704L7.12462 19.3321C7.33662 19.5425 7.58095 19.6477 7.85762 19.6477C8.13406 19.6477 8.38029 19.5425 8.59629 19.3321C8.80695 19.1187 8.91229 18.8727 8.91229 18.5941C8.91229 18.3154 8.80695 18.0707 8.59629 17.8601L5.40295 14.6667ZM26.597 14.6667L23.4116 17.8681C23.201 18.0787 23.0943 18.3214 23.0916 18.5961C23.089 18.8707 23.1956 19.1161 23.4116 19.3321C23.617 19.5425 23.8595 19.6477 24.1393 19.6477C24.4193 19.6477 24.6646 19.5425 24.8753 19.3321L28.745 15.4624C28.9714 15.2339 29.0846 14.9669 29.0846 14.6614C29.0846 14.3558 28.9714 14.0897 28.745 13.8631L24.8833 10.0014C24.67 9.79094 24.424 9.68572 24.1453 9.68572C23.8668 9.68572 23.6223 9.79195 23.4116 10.0044C23.1956 10.2168 23.0876 10.4616 23.0876 10.7387C23.0876 11.0161 23.1956 11.2609 23.4116 11.4734L26.597 14.6667ZM2.46729 8.86006V6.07172C2.46729 5.47839 2.69251 4.95028 3.14295 4.48739C3.59317 4.02428 4.12495 3.79272 4.73829 3.79272H27.2616C27.855 3.79272 28.3831 4.02428 28.846 4.48739C29.3091 4.95028 29.5406 5.47839 29.5406 6.07172V8.86006C29.5406 9.18072 29.4294 9.45017 29.207 9.66839C28.9843 9.88661 28.7122 9.99572 28.3906 9.99572C28.0688 9.99572 27.8002 9.88661 27.5846 9.66839C27.3693 9.45017 27.2616 9.18072 27.2616 8.86006V6.07172H4.73829V8.86006C4.73829 9.18072 4.62862 9.45017 4.40929 9.66839C4.18995 9.88661 3.91917 9.99572 3.59695 9.99572C3.27473 9.99572 3.00595 9.88661 2.79062 9.66839C2.57506 9.45017 2.46729 9.18072 2.46729 8.86006ZM12.032 28.1994C11.7113 28.1994 11.4418 28.0903 11.2236 27.8721C11.0054 27.6538 10.8963 27.3844 10.8963 27.0637V25.5327H4.73829C4.12495 25.5327 3.59317 25.3019 3.14295 24.8404C2.69251 24.3791 2.46729 23.8528 2.46729 23.2617V20.2654C2.46729 19.9376 2.57695 19.6651 2.79629 19.4477C3.01562 19.2304 3.2864 19.1217 3.60862 19.1217C3.93084 19.1217 4.19973 19.2324 4.41529 19.4537C4.63062 19.6748 4.73829 19.9454 4.73829 20.2654V23.2617H27.2616V20.2654C27.2616 19.9376 27.3713 19.6651 27.5906 19.4477C27.81 19.2304 28.0805 19.1217 28.4023 19.1217C28.7241 19.1217 28.9942 19.2324 29.2126 19.4537C29.4313 19.6748 29.5406 19.9454 29.5406 20.2654V23.2617C29.5406 23.8528 29.3091 24.3791 28.846 24.8404C28.3831 25.3019 27.855 25.5327 27.2616 25.5327H21.1116V27.0637C21.1116 27.3844 21.001 27.6538 20.7796 27.8721C20.5585 28.0903 20.288 28.1994 19.968 28.1994H12.032Z" fill="#009D0A"/>
</svg>
