<svg width="32" height="32" viewBox="0 0 32 32" fill="none" xmlns="http://www.w3.org/2000/svg">
<path d="M21.0007 16.1704C20.4831 16.1704 20.0843 16.0081 19.8043 15.6834C19.5241 15.3587 19.384 15.0086 19.384 14.6331C19.384 14.3373 19.4449 14.0686 19.5667 13.8271C19.6884 13.5855 19.8781 13.3789 20.1357 13.2074C20.3185 13.0854 20.486 12.9244 20.638 12.7244C20.79 12.5246 20.9075 12.2272 20.9906 11.8321C20.9291 11.7983 20.8704 11.7645 20.8146 11.7307C20.7591 11.6969 20.704 11.6507 20.6493 11.5921C19.9875 11.8454 19.5102 12.0281 19.2173 12.1401C18.9244 12.2521 18.6159 12.3081 18.2917 12.3081C17.6434 12.3081 17.071 12.0236 16.5743 11.4547C16.0779 10.8858 15.8297 10.0568 15.8297 8.96772C15.8297 8.44906 15.992 8.05061 16.3167 7.77239C16.6413 7.49417 16.9922 7.35506 17.3693 7.35506C17.6662 7.35506 17.9359 7.41595 18.1783 7.53772C18.4208 7.6595 18.6264 7.84817 18.7953 8.10372C18.9178 8.28706 19.0787 8.4535 19.278 8.60306C19.4773 8.75284 19.7763 8.86972 20.175 8.95372C20.2105 8.89017 20.2449 8.83195 20.278 8.77906C20.3111 8.72617 20.3571 8.67328 20.416 8.62039C20.1555 7.95995 19.9698 7.48128 19.8587 7.18439C19.7475 6.8875 19.692 6.57683 19.692 6.25239C19.692 5.60328 19.9764 5.03106 20.5453 4.53572C21.1142 4.04039 21.9432 3.79272 23.0323 3.79272C23.5512 3.79272 23.951 3.95628 24.2316 4.28339C24.5125 4.61072 24.653 4.96072 24.653 5.33339C24.653 5.62717 24.5921 5.89595 24.4703 6.13972C24.3485 6.38328 24.1598 6.5895 23.904 6.75839C23.7209 6.8815 23.5532 7.04395 23.401 7.24572C23.2488 7.4475 23.1305 7.7455 23.0463 8.13972C23.1099 8.17483 23.169 8.20883 23.2236 8.24172C23.2783 8.27461 23.333 8.32039 23.3876 8.37906C24.0494 8.12572 24.5268 7.94172 24.8197 7.82706C25.1125 7.71239 25.4215 7.65506 25.7467 7.65506C26.3967 7.65506 26.9692 7.94095 27.4643 8.51272C27.9596 9.08472 28.2073 9.91506 28.2073 11.0037C28.2073 11.5224 28.0438 11.9207 27.7166 12.1987C27.3893 12.4769 27.0393 12.6161 26.6666 12.6161C26.3729 12.6161 26.1041 12.5552 25.8603 12.4334C25.6168 12.3116 25.4105 12.1229 25.2416 11.8674C25.1185 11.6841 24.9568 11.5176 24.7563 11.3681C24.5559 11.2185 24.2576 11.1016 23.8616 11.0174C23.8263 11.0809 23.7921 11.1392 23.759 11.1921C23.7259 11.2449 23.6799 11.2978 23.621 11.3507C23.8761 12.0112 24.0605 12.4898 24.1743 12.7867C24.2881 13.0836 24.345 13.3938 24.345 13.7174C24.345 14.3647 24.0592 14.9354 23.4876 15.4294C22.9161 15.9234 22.0871 16.1704 21.0007 16.1704ZM22.0273 11.0334C22.3258 11.0334 22.5742 10.9325 22.7726 10.7307C22.9711 10.5289 23.0703 10.2788 23.0703 9.98039C23.0703 9.68217 22.9694 9.43383 22.7677 9.23539C22.5659 9.03695 22.3158 8.93772 22.0173 8.93772C21.7191 8.93772 21.4708 9.03861 21.2723 9.24039C21.0739 9.44217 20.9746 9.69228 20.9746 9.99072C20.9746 10.2889 21.0755 10.5373 21.2773 10.7357C21.4791 10.9342 21.7291 11.0334 22.0273 11.0334ZM9.87598 28.1994C9.29821 28.1994 8.78254 28.0276 8.32898 27.6841C7.87543 27.3407 7.57665 26.8975 7.43265 26.3544L4.10065 13.3761C3.98954 13.0492 3.91732 12.7181 3.88398 12.3827C3.85065 12.0474 3.83398 11.7038 3.83398 11.3521C3.83398 10.7285 3.90754 10.1123 4.05465 9.50339C4.20176 8.8945 4.41132 8.30428 4.68332 7.73272C4.87043 7.3525 5.13498 7.04972 5.47698 6.82439C5.81898 6.59906 6.19665 6.48639 6.60998 6.48639C7.09221 6.48639 7.49798 6.65739 7.82732 6.99939C8.15643 7.34117 8.32098 7.74672 8.32098 8.21606C8.32098 8.44028 8.28921 8.65017 8.22565 8.84572C8.1621 9.04128 8.0361 9.22339 7.84765 9.39206C7.37254 9.8865 7.09243 10.4635 7.00732 11.1231C6.92221 11.7826 7.01876 12.4266 7.29698 13.0551L7.86365 14.4964C8.48654 15.9653 9.03787 17.4605 9.51765 18.9821C9.99721 20.5038 10.237 22.0761 10.237 23.6987L10.245 25.3154C10.4014 25.0921 10.6563 24.9024 11.0097 24.7464C11.3632 24.5904 11.7542 24.5124 12.1827 24.5124H20.213C20.9248 24.5124 21.5266 24.7619 22.0187 25.2611C22.5106 25.7604 22.7566 26.3613 22.7566 27.0637V28.1994H9.87598Z" fill="#006DFB"/>
</svg>
