<svg width="32" height="32" viewBox="0 0 32 32" fill="none" xmlns="http://www.w3.org/2000/svg">
<path d="M14.6333 17.503L12.024 14.8934C11.8187 14.6883 11.5649 14.5857 11.2627 14.5857C10.9604 14.5857 10.704 14.6907 10.4933 14.9007C10.2882 15.1078 10.1857 15.3589 10.1857 15.654C10.1857 15.9494 10.2882 16.206 10.4933 16.424L13.7297 19.6934C13.9601 19.9254 14.229 20.0414 14.5363 20.0414C14.8434 20.0414 15.1103 19.9254 15.337 19.6934L21.4653 13.5654C21.6758 13.3554 21.781 13.1059 21.781 12.817C21.781 12.5284 21.6813 12.2898 21.482 12.1014C21.2824 11.9132 21.0323 11.8246 20.7317 11.8357C20.4312 11.8468 20.1878 11.9465 20.0013 12.1347L14.6333 17.503ZM16 29.3914C15.8658 29.3914 15.7401 29.3789 15.623 29.354C15.5057 29.3292 15.391 29.2918 15.279 29.2421C12.1634 28.1976 9.69378 26.3013 7.87 23.553C6.046 20.8046 5.134 17.8079 5.134 14.5631V8.08905C5.134 7.60283 5.26945 7.16327 5.54034 6.77038C5.81122 6.37749 6.16756 6.09605 6.60934 5.92605L15.2043 2.71672C15.4754 2.61716 15.7407 2.56738 16 2.56738C16.2593 2.56738 16.5246 2.61716 16.7957 2.71672L25.3907 5.92605C25.8324 6.09605 26.1901 6.37749 26.4637 6.77038C26.7372 7.16327 26.874 7.60283 26.874 8.08905V14.5631C26.874 17.8079 25.9607 20.8046 24.134 23.553C22.3076 26.3013 19.8366 28.1976 16.721 29.2421C16.609 29.2918 16.4943 29.3292 16.377 29.354C16.2599 29.3789 16.1342 29.3914 16 29.3914ZM16 27.1697C18.5289 26.2986 20.5937 24.7028 22.1943 22.3824C23.7948 20.0617 24.595 17.4573 24.595 14.569V8.08905L16 4.84638L7.405 8.09305V14.5654C7.405 17.456 8.20522 20.0617 9.80567 22.3824C11.4063 24.7028 13.4711 26.2986 16 27.1697Z" fill="#006DFB"/>
</svg>
