<svg width="24" height="24" viewBox="0 0 24 24" fill="none" xmlns="http://www.w3.org/2000/svg">
<path d="M20.2401 11.6399C20.0484 11.6399 19.8784 11.5712 19.7301 11.4339C19.5818 11.2965 19.489 11.1219 19.4518 10.9099C19.2185 9.2052 18.4923 7.74336 17.2731 6.52436C16.0541 5.30536 14.5923 4.5772 12.8876 4.33986C12.6756 4.30653 12.5009 4.21495 12.3636 4.06511C12.2263 3.91545 12.1576 3.73461 12.1576 3.52261C12.1576 3.29478 12.2356 3.10478 12.3916 2.95261C12.5476 2.80028 12.7379 2.74078 12.9626 2.77411C15.0871 3.01728 16.8998 3.89061 18.4008 5.39411C19.9018 6.89745 20.776 8.71103 21.0233 10.8349C21.0567 11.0595 20.9938 11.2499 20.8346 11.4059C20.6753 11.5619 20.4771 11.6399 20.2401 11.6399ZM15.8593 11.6399C15.693 11.6399 15.5354 11.5828 15.3866 11.4686C15.2378 11.3544 15.1336 11.2015 15.0741 11.0099C14.9114 10.4584 14.6275 9.98011 14.2223 9.57511C13.8173 9.17011 13.3391 8.8862 12.7876 8.72336C12.5963 8.66153 12.4434 8.56336 12.3291 8.42886C12.2148 8.29436 12.1576 8.13653 12.1576 7.95536C12.1576 7.6902 12.2447 7.4797 12.4188 7.32386C12.593 7.16786 12.8033 7.11886 13.0496 7.17686C13.9289 7.39053 14.6883 7.81786 15.3278 8.45886C15.9675 9.10003 16.4068 9.86303 16.6458 10.7479C16.6998 10.9892 16.6487 11.1982 16.4923 11.3749C16.3362 11.5515 16.1252 11.6399 15.8593 11.6399ZM19.8871 21.1496C17.9294 21.1496 15.9376 20.6789 13.9116 19.7376C11.8854 18.7963 10.007 17.4603 8.27634 15.7296C6.54584 13.9991 5.20892 12.1198 4.26559 10.0916C3.32225 8.06361 2.85059 6.07278 2.85059 4.11911C2.85059 3.75728 2.972 3.45445 3.21484 3.21061C3.4575 2.96661 3.75892 2.84461 4.11909 2.84461H7.61909C7.92025 2.84461 8.17309 2.94095 8.37759 3.13361C8.58209 3.32611 8.72367 3.57928 8.80234 3.89311L9.47559 6.93836C9.51809 7.22553 9.5125 7.48186 9.45884 7.70736C9.40517 7.93303 9.29384 8.12636 9.12484 8.28736L6.60659 10.7709C7.02392 11.4722 7.46634 12.1276 7.93384 12.7371C8.40117 13.3464 8.9205 13.9265 9.49184 14.4774C10.0927 15.0987 10.7198 15.6609 11.3731 16.1639C12.0266 16.667 12.7084 17.1066 13.4186 17.4826L15.8233 15.0149C16.018 14.8035 16.2408 14.6605 16.4918 14.5859C16.743 14.5114 16.9963 14.4987 17.2518 14.5479L20.1071 15.1801C20.4209 15.2666 20.6741 15.4262 20.8666 15.6589C21.0593 15.8915 21.1556 16.1619 21.1556 16.4701V19.8811C21.1556 20.2434 21.0335 20.5454 20.7893 20.7871C20.5452 21.0288 20.2444 21.1496 19.8871 21.1496ZM5.75509 9.22836L7.77409 7.22011L7.20509 4.55386H4.56584C4.59517 5.23003 4.70159 5.94553 4.88509 6.70036C5.06859 7.4552 5.35859 8.29786 5.75509 9.22836ZM14.9978 18.3274C15.6613 18.636 16.3841 18.8884 17.1661 19.0844C17.9483 19.2804 18.7083 19.397 19.4463 19.4344V16.7844L16.9608 16.2701L14.9978 18.3274Z" fill="#02A615"/>
</svg>
