<svg width="24" height="24" viewBox="0 0 24 24" fill="none" xmlns="http://www.w3.org/2000/svg">
<path d="M12.0001 16.795C13.7889 15.4476 15.1308 14.0761 16.0258 12.6802C16.921 11.2844 17.3686 10.0218 17.3686 8.89248C17.3686 7.32365 16.867 6.04165 15.8638 5.04648C14.8608 4.05131 13.5729 3.55373 12.0001 3.55373C10.4273 3.55373 9.14034 4.05131 8.13934 5.04648C7.13817 6.04165 6.63759 7.32365 6.63759 8.89248C6.63759 10.0051 7.08417 11.2594 7.97734 12.6552C8.87034 14.0511 10.2113 15.431 12.0001 16.795ZM12.0001 18.5602C11.8301 18.5602 11.6602 18.5322 11.4903 18.4762C11.3203 18.4204 11.1608 18.3365 11.0116 18.2245C8.93225 16.6158 7.3985 15.0216 6.41034 13.4417C5.42234 11.8621 4.92834 10.3456 4.92834 8.89248C4.92834 6.82648 5.5895 5.13532 6.91184 3.81898C8.234 2.50265 9.93009 1.84448 12.0001 1.84448C14.0701 1.84448 15.7662 2.50265 17.0883 3.81898C18.4107 5.13532 19.0718 6.82648 19.0718 8.89248C19.0718 10.3456 18.5778 11.8621 17.5898 13.4417C16.6017 15.0216 15.0679 16.6158 12.9886 18.2245C12.8394 18.3365 12.6798 18.4204 12.5098 18.4762C12.34 18.5322 12.1701 18.5602 12.0001 18.5602ZM11.9751 11.006C12.5656 11.006 13.0657 10.8021 13.4753 10.3945C13.885 9.98698 14.0898 9.49423 14.0898 8.91623C14.0898 8.3424 13.885 7.85065 13.4753 7.44098C13.0657 7.03148 12.5656 6.82673 11.9751 6.82673C11.4013 6.82673 10.9137 7.03148 10.5123 7.44098C10.111 7.85065 9.91034 8.3424 9.91034 8.91623C9.91034 9.49423 10.111 9.98698 10.5123 10.3945C10.9137 10.8021 11.4013 11.006 11.9751 11.006ZM5.69634 22.1495C5.45167 22.1495 5.24959 22.0686 5.09009 21.907C4.93042 21.7455 4.85059 21.5424 4.85059 21.2977C4.85059 21.0532 4.93142 20.8511 5.09309 20.6915C5.25459 20.532 5.45767 20.4522 5.70234 20.4522H18.3038C18.5485 20.4522 18.7516 20.532 18.9131 20.6915C19.0748 20.8511 19.1556 21.0532 19.1556 21.2977C19.1556 21.5424 19.0748 21.7455 18.9131 21.907C18.7516 22.0686 18.5485 22.1495 18.3038 22.1495H5.69634Z" fill="#FF0000"/>
</svg>
