<svg width="32" height="32" viewBox="0 0 32 32" fill="none" xmlns="http://www.w3.org/2000/svg">
<path d="M9.96803 7.33328C9.30247 7.33328 8.73814 7.10172 8.27503 6.63861C7.81191 6.17572 7.58036 5.61139 7.58036 4.94561C7.58036 4.2745 7.81191 3.69639 8.27503 3.21128C8.73814 2.72594 9.30247 2.48328 9.96803 2.48328C10.6391 2.48328 11.2174 2.72594 11.7027 3.21128C12.1878 3.69639 12.4304 4.2745 12.4304 4.94561C12.4304 5.61139 12.1878 6.17572 11.7027 6.63861C11.2174 7.10172 10.6391 7.33328 9.96803 7.33328ZM17.479 26.1833H9.23203C8.5798 26.1833 8.0348 25.9811 7.59703 25.5766C7.15947 25.1724 6.87714 24.6468 6.75003 23.9999L3.90736 9.80361C3.83536 9.46583 3.91425 9.16417 4.14403 8.89861C4.37358 8.63283 4.65725 8.49994 4.99503 8.49994C5.26058 8.49994 5.50136 8.58439 5.71736 8.75328C5.93336 8.92216 6.06625 9.14205 6.11603 9.41294L8.83336 23.9999H17.479C17.7946 23.9999 18.0547 24.1024 18.2594 24.3073C18.4642 24.5119 18.5667 24.7721 18.5667 25.0876C18.5667 25.4032 18.4642 25.6646 18.2594 25.8719C18.0547 26.0795 17.7946 26.1833 17.479 26.1833ZM25.963 28.4666L22.5297 22.4999H12.1667C11.5889 22.4999 11.0722 22.3333 10.6167 21.9999C10.1611 21.6666 9.8778 21.2222 9.76669 20.6666L8.23203 12.5356C8.02669 11.4761 8.27692 10.5386 8.98269 9.72328C9.68847 8.90772 10.6092 8.49994 11.745 8.49994C12.4961 8.49994 13.1681 8.75128 13.761 9.25394C14.3537 9.75661 14.7358 10.4096 14.9074 11.2129L16.3927 19.0456H21.679C22.1552 19.0456 22.5614 19.1843 22.8974 19.4616C23.2334 19.7389 23.5231 20.0851 23.7667 20.4999L27.8014 27.4266C27.94 27.6817 27.9705 27.9493 27.8927 28.2293C27.8149 28.5093 27.6459 28.7186 27.3857 28.8573C27.1252 28.9959 26.8577 29.0306 26.583 28.9613C26.3084 28.8919 26.1017 28.7271 25.963 28.4666Z" fill="#FF0000"/>
</svg>
