<svg width="32" height="32" viewBox="0 0 32 32" fill="none" xmlns="http://www.w3.org/2000/svg">
<path d="M21.3333 22.469C21.0128 22.469 20.7435 22.3598 20.5253 22.1413C20.3068 21.9231 20.1976 21.6538 20.1976 21.3334V10.6667C20.1976 10.3462 20.3068 10.0769 20.5253 9.85868C20.7435 9.64024 21.0128 9.53102 21.3333 9.53102H22.6666C22.9871 9.53102 23.2564 9.64024 23.4746 9.85868C23.6931 10.0769 23.8023 10.3462 23.8023 10.6667V21.3334C23.8023 21.6538 23.6931 21.9231 23.4746 22.1413C23.2564 22.3598 22.9871 22.469 22.6666 22.469H21.3333ZM9.33329 22.469C9.01284 22.469 8.74351 22.3598 8.52529 22.1413C8.30684 21.9231 8.19762 21.6538 8.19762 21.3334V10.6667C8.19762 10.3462 8.30684 10.0769 8.52529 9.85868C8.74351 9.64024 9.01284 9.53102 9.33329 9.53102H10.6666C10.9871 9.53102 11.2564 9.64024 11.4746 9.85868C11.6931 10.0769 11.8023 10.3462 11.8023 10.6667V21.3334C11.8023 21.6538 11.6931 21.9231 11.4746 22.1413C11.2564 22.3598 10.9871 22.469 10.6666 22.469H9.33329ZM28.3913 29.5327C28.0691 29.5327 27.8002 29.4236 27.5846 29.2054C27.3693 28.9871 27.2616 28.7177 27.2616 28.397V3.60302C27.2616 3.28235 27.3713 3.01157 27.5906 2.79068C27.81 2.56979 28.0807 2.45935 28.403 2.45935C28.7252 2.45935 28.9953 2.56979 29.2133 2.79068C29.4315 3.01157 29.5406 3.28235 29.5406 3.60302V28.397C29.5406 28.7177 29.4296 28.9871 29.2076 29.2054C28.9856 29.4236 28.7135 29.5327 28.3913 29.5327ZM3.59695 29.5327C3.27473 29.5327 3.00595 29.4236 2.79062 29.2054C2.57506 28.9871 2.46729 28.7177 2.46729 28.397V3.60302C2.46729 3.28235 2.57695 3.01157 2.79629 2.79068C3.01562 2.56979 3.2864 2.45935 3.60862 2.45935C3.93084 2.45935 4.19973 2.56979 4.41529 2.79068C4.63062 3.01157 4.73829 3.28235 4.73829 3.60302V28.397C4.73829 28.7177 4.62862 28.9871 4.40929 29.2054C4.18995 29.4236 3.91917 29.5327 3.59695 29.5327Z" fill="#02A615"/>
</svg>
