<svg width="32" height="32" viewBox="0 0 32 32" fill="none" xmlns="http://www.w3.org/2000/svg">
<path d="M3.59695 21.2514C3.27473 21.2514 3.00595 21.1422 2.79062 20.924C2.57506 20.7058 2.46729 20.4365 2.46729 20.116V4.73835C2.46729 4.10613 2.68829 3.56824 3.13029 3.12468C3.57229 2.68113 4.10828 2.45935 4.73828 2.45935H22.8239C23.1444 2.45935 23.4137 2.57057 23.632 2.79302C23.8502 3.01568 23.9593 3.2878 23.9593 3.60935C23.9593 3.93113 23.8502 4.19979 23.632 4.41535C23.4137 4.63068 23.1444 4.73835 22.8239 4.73835H4.73828V20.116C4.73828 20.4365 4.62862 20.7058 4.40929 20.924C4.18995 21.1422 3.91917 21.2514 3.59695 21.2514ZM16.1963 29.5327C15.8758 29.5327 15.6065 29.4236 15.3883 29.2054C15.1701 28.9871 15.061 28.7177 15.061 28.397V26.866H10.3506C9.73506 26.866 9.2014 26.6408 8.74962 26.1904C8.29762 25.7401 8.07162 25.2083 8.07162 24.595V10.3427C8.07162 9.73491 8.29762 9.20446 8.74962 8.75135C9.2014 8.29824 9.73506 8.07168 10.3506 8.07168H28.6346C29.2424 8.07168 29.7728 8.29824 30.226 8.75135C30.6791 9.20446 30.9056 9.73491 30.9056 10.3427V24.595C30.9056 25.2083 30.6791 25.7401 30.226 26.1904C29.7728 26.6408 29.2424 26.866 28.6346 26.866H23.9246V28.397C23.9246 28.7177 23.8155 28.9871 23.5973 29.2054C23.3791 29.4236 23.1096 29.5327 22.7889 29.5327H16.1963ZM10.3506 24.595H28.6346V10.3427H10.3506V24.595Z" fill="#FF00E6"/>
</svg>
