<svg width="32" height="32" viewBox="0 0 32 32" fill="none" xmlns="http://www.w3.org/2000/svg">
<path d="M26.679 9.38759C26.9057 9.61426 27.019 9.87948 27.019 10.1833C27.019 10.487 26.9057 10.7523 26.679 10.9789L25.2457 12.4123C25.0177 12.6389 24.7466 12.7535 24.4323 12.7559C24.1181 12.7586 23.8491 12.6435 23.6253 12.4106C23.3958 12.1828 23.2866 11.912 23.2977 11.5983C23.3088 11.2845 23.4277 11.0143 23.6543 10.7876L25.0877 9.38759C25.3143 9.17804 25.5796 9.06904 25.8833 9.06059C26.1871 9.05193 26.4523 9.16092 26.679 9.38759ZM3.66667 26.6523C3.34623 26.6523 3.07689 26.5425 2.85867 26.3229C2.64023 26.1036 2.53101 25.8328 2.53101 25.5106C2.53101 25.1886 2.64023 24.9198 2.85867 24.7043C3.07689 24.4887 3.34623 24.3809 3.66667 24.3809H28.3333C28.6538 24.3809 28.9231 24.4907 29.1413 24.7103C29.3598 24.9296 29.469 25.2004 29.469 25.5226C29.469 25.8446 29.3598 26.1134 29.1413 26.3289C28.9231 26.5445 28.6538 26.6523 28.3333 26.6523H3.66667ZM16.006 5.00659C16.328 5.00659 16.5968 5.11704 16.8123 5.33793C17.0279 5.55881 17.1357 5.82948 17.1357 6.14992V8.14992C17.1357 8.47037 17.0259 8.7397 16.8063 8.95792C16.587 9.17637 16.3162 9.28559 15.994 9.28559C15.672 9.28559 15.4032 9.17637 15.1877 8.95792C14.9721 8.7397 14.8643 8.47037 14.8643 8.14992V6.14992C14.8643 5.82948 14.9741 5.55881 15.1937 5.33793C15.413 5.11704 15.6838 5.00659 16.006 5.00659ZM5.35434 9.32093C5.58101 9.09426 5.84623 8.98092 6.15001 8.98092C6.45378 8.98092 6.71901 9.09426 6.94567 9.32093L8.41234 10.7876C8.63901 11.0156 8.75356 11.2867 8.75601 11.6009C8.75867 11.9151 8.64678 12.1899 8.42034 12.4253C8.18834 12.6433 7.9149 12.7467 7.60001 12.7356C7.28512 12.7245 7.01434 12.6056 6.78767 12.3789L5.35434 10.9123C5.14478 10.6856 5.03578 10.4204 5.02734 10.1166C5.01867 9.81281 5.12767 9.54759 5.35434 9.32093ZM9.09267 19.2536H22.9073C22.4798 17.7183 21.6375 16.4721 20.3803 15.5153C19.1235 14.5581 17.6633 14.0796 16 14.0796C14.3367 14.0796 12.8766 14.5581 11.6197 15.5153C10.3626 16.4721 9.52023 17.7183 9.09267 19.2536ZM6.53101 21.4689C6.53101 18.8051 7.44723 16.5385 9.27967 14.6689C11.1121 12.7991 13.3522 11.8643 16 11.8643C18.6478 11.8643 20.8879 12.7991 22.7203 14.6689C24.5528 16.5385 25.469 18.8051 25.469 21.4689H6.53101Z" fill="#FF00E6"/>
</svg>
