<svg width="48" height="48" viewBox="0 0 48 48" fill="none" xmlns="http://www.w3.org/2000/svg">
<g clip-path="url(#clip0_422_603)">
<path fill-rule="evenodd" clip-rule="evenodd" d="M41.0061 6.97008C36.4945 2.47744 30.4941 0.00225414 24.1008 0C10.9268 0 0.205067 10.6613 0.200533 23.766C0.198267 27.9552 1.29947 32.0442 3.39093 35.6478L0 47.965L12.6699 44.66C16.1604 46.5542 20.0911 47.5513 24.0905 47.5525H24.1008C37.2725 47.5525 47.9955 36.89 48 23.7853C48.0023 17.4342 45.5189 11.4636 41.0061 6.97114V6.97008ZM24.1008 43.5387H24.0928C20.5288 43.5376 17.0325 42.5848 13.982 40.7853L13.2567 40.3569L5.73787 42.3181L7.74453 35.0278L7.27227 34.2802C5.284 31.1349 4.2332 27.4994 4.23547 23.7672C4.24013 12.8757 13.1511 4.01383 24.1089 4.01383C29.4147 4.01609 34.402 6.07306 38.1527 9.80765C41.9035 13.5412 43.9673 18.5055 43.9651 23.7831C43.9604 34.6758 35.0495 43.5376 24.1008 43.5376V43.5387ZM34.9967 28.7439C34.3996 28.4465 31.4637 27.0105 30.9159 26.8122C30.3681 26.6139 29.9705 26.5148 29.5728 27.1097C29.1752 27.7046 28.0304 29.0425 27.682 29.4379C27.3336 29.8345 26.9852 29.8836 26.3881 29.586C25.7912 29.2886 23.8671 28.6618 21.5855 26.6389C19.8104 25.064 18.6116 23.1198 18.2633 22.5249C17.9149 21.93 18.2267 21.6086 18.5245 21.3135C18.7927 21.0468 19.1216 20.6194 19.4207 20.273C19.7199 19.9265 19.8184 19.6781 20.0177 19.2826C20.2172 18.886 20.1175 18.5397 19.9685 18.2421C19.8195 17.9447 18.6255 15.0215 18.1269 13.8329C17.6421 12.675 17.1495 12.8323 16.7839 12.813C16.4355 12.7957 16.0379 12.7924 15.6391 12.7924C15.2403 12.7924 14.5939 12.9406 14.0461 13.5355C13.4984 14.1303 11.9559 15.5674 11.9559 18.4894C11.9559 21.4114 14.0955 24.2367 14.3945 24.6333C14.6936 25.0299 18.6059 31.0278 24.5959 33.6011C26.0204 34.213 27.1331 34.5788 28.0005 34.8524C29.4308 35.3048 30.7325 35.241 31.7616 35.0883C32.9088 34.9173 35.2947 33.6512 35.792 32.2642C36.2893 30.8773 36.2893 29.6875 36.1404 29.4402C35.9915 29.1929 35.5927 29.0436 34.9956 28.7462L34.9967 28.7439Z" fill="white"/>
</g>
<defs>
<clipPath id="clip0_422_603">
<rect width="48" height="48" fill="white"/>
</clipPath>
</defs>
</svg>
